<svg width="22" height="22" viewBox="0 0 22 22" fill="none" xmlns="http://www.w3.org/2000/svg">
<path d="M10.8001 0.675049C8.89324 0.676572 7.02558 1.21653 5.41211 2.23277H16.1733C14.5641 1.2192 12.7019 0.679346 10.8001 0.675049Z" fill="#B22234"/>
<path d="M5.41216 2.23279C4.71711 2.67279 4.07827 3.19586 3.50977 3.79043H18.1024C17.5257 3.19415 16.8778 2.67101 16.1733 2.23279H5.41216Z" fill="white"/>
<path d="M3.5089 3.79041C3.04935 4.26817 2.63783 4.78992 2.28027 5.34813H19.3299C18.9724 4.78993 18.561 4.26819 18.1016 3.79041H3.5089Z" fill="#B22234"/>
<path d="M2.28052 5.34814C1.96095 5.84241 1.68508 6.3636 1.45605 6.90579H20.1356C19.9126 6.36426 19.6431 5.84309 19.3301 5.34814H2.28052Z" fill="white"/>
<path d="M1.45674 6.90576C1.24942 7.41076 1.08329 7.9317 0.959961 8.46349H20.6397C20.5142 7.93151 20.3458 7.41056 20.1362 6.90576H1.45674Z" fill="#B22234"/>
<path d="M0.959659 8.46338C0.837355 8.97544 0.755175 9.49626 0.713867 10.0211H20.8919C20.8484 9.49608 20.764 8.97526 20.6394 8.46338H0.959659Z" fill="white"/>
<path d="M0.713779 10.0212C0.690791 10.2803 0.67779 10.54 0.674805 10.8001C0.67579 11.06 0.686784 11.3198 0.707764 11.5789H20.8858C20.9088 11.3199 20.9218 11.0601 20.9248 10.8001C20.9238 10.5401 20.9128 10.2803 20.8918 10.0212H0.713779Z" fill="#B22234"/>
<path d="M0.708008 11.5787C0.751537 12.1038 0.835976 12.6246 0.960556 13.1365H20.6403C20.7626 12.6244 20.8448 12.1036 20.8861 11.5787H0.708008Z" fill="white"/>
<path d="M0.960938 13.1366C1.08643 13.6686 1.2548 14.1895 1.46439 14.6943H20.1439C20.3512 14.1893 20.5173 13.6684 20.6407 13.1366H0.960938Z" fill="#B22234"/>
<path d="M1.46387 14.6942C1.68679 15.2357 1.95628 15.7569 2.2693 16.2519H19.3189C19.6385 15.7576 19.9143 15.2364 20.1434 14.6942H1.46387Z" fill="white"/>
<path d="M2.26953 16.252C2.62699 16.8101 3.0384 17.3319 3.49783 17.8097H18.0905C18.5501 17.3319 18.9616 16.8102 19.3191 16.252H2.26953Z" fill="#B22234"/>
<path d="M3.49805 17.8096C4.07484 18.4059 4.72272 18.929 5.42714 19.3672H16.1883C16.8834 18.9272 17.5222 18.4041 18.0907 17.8096H3.49805Z" fill="white"/>
<path d="M5.42676 19.3672C7.03599 20.3808 8.89815 20.9206 10.8 20.9249C12.7068 20.9234 14.5745 20.3834 16.1879 19.3672H5.42676Z" fill="#B22234"/>
<path d="M10.7998 0.675049C8.11449 0.675049 5.53915 1.74179 3.64035 3.64059C1.74154 5.5394 0.674805 8.11473 0.674805 10.8C0.676129 11.0676 0.688059 11.335 0.710565 11.6016H11.6014V0.715176C11.3348 0.691212 11.0674 0.677826 10.7998 0.675049Z" fill="#3C3B6E"/>
<path d="M7.17636 1.35762C7.04146 1.40687 6.90761 1.45898 6.77492 1.51393L6.92283 1.62632L6.8228 1.94956L7.08779 1.75173L7.36052 1.95904L7.2581 1.6245L7.53084 1.4209H7.19573L7.17636 1.35762ZM8.89383 1.08105L8.78863 1.42087H8.45468L8.725 1.62634L8.62495 1.94954L8.88992 1.75172L9.16268 1.95902L9.06025 1.62454L9.33298 1.42087H8.9979L8.89383 1.08105ZM10.696 1.08105L10.5908 1.42087H10.2568L10.5271 1.62634L10.4271 1.94954L10.6921 1.75172L10.9648 1.95902L10.8624 1.62454L11.1351 1.42087H10.8L10.696 1.08105ZM4.57129 2.83253C4.52368 2.86804 4.47638 2.90397 4.4294 2.94031L4.65731 3.11359L4.57129 2.83253ZM6.19061 2.2356L6.08541 2.57542H5.75146L6.02178 2.78089L5.92173 3.10409L6.1867 2.90626L6.45946 3.11357L6.35703 2.77909L6.62976 2.57542H6.29467L6.19061 2.2356ZM7.99276 2.2356L7.88756 2.57542H7.55361L7.82393 2.78089L7.72387 3.10409L7.98885 2.90626L8.26161 3.11357L8.15918 2.77909L8.43191 2.57542H8.09682L7.99276 2.2356ZM9.7949 2.2356L9.6897 2.57542H9.35575L9.62607 2.78089L9.52602 3.10409L9.79099 2.90626L10.0638 3.11357L9.96132 2.77909L10.2341 2.57542H9.89896L9.7949 2.2356ZM3.58309 3.70273C3.48322 3.80845 3.38564 3.91631 3.29042 4.02623L3.21849 4.25859L3.48348 4.06075L3.75621 4.26806L3.65379 3.93361L3.92653 3.72992H3.59142L3.58309 3.70273ZM5.28954 3.3901L5.18433 3.72992H4.85039L5.1207 3.93539L5.02065 4.25859L5.28562 4.06076L5.55839 4.26807L5.45596 3.93359L5.72869 3.72992H5.3936L5.28954 3.3901ZM7.09168 3.3901L6.98648 3.72992H6.65253L6.92285 3.93539L6.8228 4.25859L7.08777 4.06076L7.36053 4.26807L7.2581 3.93359L7.53083 3.72992H7.19575L7.09168 3.3901ZM8.89383 3.3901L8.78863 3.72992H8.45468L8.725 3.93539L8.62495 4.25859L8.88992 4.06076L9.16268 4.26807L9.06025 3.93359L9.33298 3.72992H8.9979L8.89383 3.3901ZM10.696 3.3901L10.5908 3.72992H10.2568L10.5271 3.93539L10.4271 4.25859L10.6921 4.06076L10.9648 4.26807L10.8624 3.93359L11.1351 3.72992H10.8L10.696 3.3901ZM2.6628 4.79433C2.56951 4.91866 2.47909 5.04512 2.39163 5.17361L2.31747 5.41314L2.58238 5.2153L2.8552 5.42262L2.75277 5.08816L3.02543 4.88448H2.6904L2.6628 4.79433ZM4.38846 4.54465L4.28326 4.88447H3.94931L4.21963 5.08993L4.11958 5.41313L4.38455 5.21531L4.65731 5.42262L4.55488 5.08814L4.82761 4.88447H4.49253L4.38846 4.54465ZM6.19061 4.54465L6.08541 4.88447H5.75146L6.02178 5.08993L5.92173 5.41313L6.1867 5.21531L6.45946 5.42262L6.35703 5.08814L6.62976 4.88447H6.29467L6.19061 4.54465ZM7.99276 4.54465L7.88756 4.88447H7.55361L7.82393 5.08993L7.72387 5.41313L7.98885 5.21531L8.26161 5.42262L8.15918 5.08814L8.43191 4.88447H8.09682L7.99276 4.54465ZM9.7949 4.54465L9.6897 4.88447H9.35575L9.62607 5.08993L9.52602 5.41313L9.79099 5.21531L10.0638 5.42262L9.96132 5.08814L10.2341 4.88447H9.89896L9.7949 4.54465ZM1.8731 6.03903C1.81259 6.15244 1.75424 6.26699 1.69809 6.38263L1.9541 6.57717L1.85168 6.24272L2.12441 6.03903H1.8731ZM3.48739 5.69919L3.38219 6.03901H3.04824L3.31856 6.24448L3.21851 6.56768L3.48348 6.36986L3.75624 6.57716L3.65382 6.24268L3.92654 6.03901H3.59145L3.48739 5.69919ZM5.28954 5.69919L5.18433 6.03901H4.85039L5.1207 6.24448L5.02065 6.56768L5.28562 6.36986L5.55839 6.57716L5.45596 6.24268L5.72869 6.03901H5.3936L5.28954 5.69919ZM7.09168 5.69919L6.98648 6.03901H6.65253L6.92285 6.24448L6.8228 6.56768L7.08777 6.36986L7.36053 6.57716L7.2581 6.24268L7.53083 6.03901H7.19575L7.09168 5.69919ZM8.89383 5.69919L8.78863 6.03901H8.45468L8.725 6.24448L8.62495 6.56768L8.88992 6.36986L9.16268 6.57716L9.06025 6.24268L9.33298 6.03901H8.9979L8.89383 5.69919ZM10.696 5.69919L10.5908 6.03901H10.2568L10.5271 6.24448L10.4271 6.56768L10.6921 6.36986L10.9648 6.57716L10.8624 6.24268L11.1351 6.03901H10.8L10.696 5.69919ZM2.58632 6.85369L2.48112 7.19351H2.14717L2.41749 7.39898L2.31744 7.72218L2.5824 7.52436L2.85517 7.73166L2.75274 7.39718L3.02547 7.19351H2.69038L2.58632 6.85369ZM4.38846 6.85369L4.28326 7.19351H3.94931L4.21963 7.39898L4.11958 7.72218L4.38455 7.52436L4.65731 7.73166L4.55488 7.39718L4.82761 7.19351H4.49253L4.38846 6.85369ZM6.19061 6.85369L6.08541 7.19351H5.75146L6.02178 7.39898L5.92173 7.72218L6.1867 7.52436L6.45946 7.73166L6.35703 7.39718L6.62976 7.19351H6.29467L6.19061 6.85369ZM7.99276 6.85369L7.88756 7.19351H7.55361L7.82393 7.39898L7.72387 7.72218L7.98885 7.52436L8.26161 7.73166L8.15918 7.39718L8.43191 7.19351H8.09682L7.99276 6.85369ZM9.7949 6.85369L9.6897 7.19351H9.35575L9.62607 7.39898L9.52602 7.72218L9.79099 7.52436L10.0638 7.73166L9.96132 7.39718L10.2341 7.19351H9.89896L9.7949 6.85369ZM1.68524 8.00824L1.58004 8.34806H1.24609L1.51642 8.55352L1.41636 8.87673L1.68134 8.6789L1.95409 8.88621L1.85167 8.55173L2.12439 8.34806H1.78931L1.68524 8.00824ZM3.48739 8.00824L3.38219 8.34806H3.04824L3.31856 8.55352L3.21851 8.87673L3.48348 8.6789L3.75624 8.88621L3.65382 8.55173L3.92654 8.34806H3.59145L3.48739 8.00824ZM5.28954 8.00824L5.18433 8.34806H4.85039L5.1207 8.55352L5.02065 8.87673L5.28562 8.6789L5.55839 8.88621L5.45596 8.55173L5.72869 8.34806H5.3936L5.28954 8.00824ZM7.09168 8.00824L6.98648 8.34806H6.65253L6.92285 8.55352L6.8228 8.87673L7.08777 8.6789L7.36053 8.88621L7.2581 8.55173L7.53083 8.34806H7.19575L7.09168 8.00824ZM8.89383 8.00824L8.78863 8.34806H8.45468L8.725 8.55352L8.62495 8.87673L8.88992 8.6789L9.16268 8.88621L9.06025 8.55173L9.33298 8.34806H8.9979L8.89383 8.00824ZM10.696 8.00824L10.5908 8.34806H10.2568L10.5271 8.55352L10.4271 8.87673L10.6921 8.6789L10.9648 8.88621L10.8624 8.55173L11.1351 8.34806H10.8L10.696 8.00824ZM2.58632 9.16279L2.48112 9.50261H2.14717L2.41749 9.70807L2.31744 10.0313L2.5824 9.83345L2.85517 10.0408L2.75274 9.70628L3.02547 9.50261H2.69038L2.58632 9.16279ZM4.38846 9.16279L4.28326 9.50261H3.94931L4.21963 9.70807L4.11958 10.0313L4.38455 9.83345L4.65731 10.0408L4.55488 9.70628L4.82761 9.50261H4.49253L4.38846 9.16279ZM6.19061 9.16279L6.08541 9.50261H5.75146L6.02178 9.70807L5.92173 10.0313L6.1867 9.83345L6.45946 10.0408L6.35703 9.70628L6.62976 9.50261H6.29467L6.19061 9.16279ZM7.99276 9.16279L7.88756 9.50261H7.55361L7.82393 9.70807L7.72387 10.0313L7.98885 9.83345L8.26161 10.0408L8.15918 9.70628L8.43191 9.50261H8.09682L7.99276 9.16279ZM9.7949 9.16279L9.6897 9.50261H9.35575L9.62607 9.70807L9.52602 10.0313L9.79099 9.83345L10.0638 10.0408L9.96132 9.70628L10.2341 9.50261H9.89896L9.7949 9.16279ZM1.68524 10.3173L1.58004 10.6571H1.24609L1.51642 10.8626L1.41636 11.1858L1.68134 10.9879L1.95409 11.1953L1.85167 10.8608L2.12439 10.6571H1.78931L1.68524 10.3173ZM3.48739 10.3173L3.38219 10.6571H3.04824L3.31856 10.8626L3.21851 11.1858L3.48348 10.9879L3.75624 11.1953L3.65382 10.8608L3.92654 10.6571H3.59145L3.48739 10.3173ZM5.28954 10.3173L5.18433 10.6571H4.85039L5.1207 10.8626L5.02065 11.1858L5.28562 10.9879L5.55839 11.1953L5.45596 10.8608L5.72869 10.6571H5.3936L5.28954 10.3173ZM7.09168 10.3173L6.98648 10.6571H6.65253L6.92285 10.8626L6.8228 11.1858L7.08777 10.9879L7.36053 11.1953L7.2581 10.8608L7.53083 10.6571H7.19575L7.09168 10.3173ZM8.89383 10.3173L8.78863 10.6571H8.45468L8.725 10.8626L8.62495 11.1858L8.88992 10.9879L9.16268 11.1953L9.06025 10.8608L9.33298 10.6571H8.9979L8.89383 10.3173ZM10.696 10.3173L10.5908 10.6571H10.2568L10.5271 10.8626L10.4271 11.1858L10.6921 10.9879L10.9648 11.1953L10.8624 10.8608L11.1351 10.6571H10.8L10.696 10.3173Z" fill="white"/>
</svg>
